<svg width="48" height="48" viewBox="0 0 48 48" fill="none" xmlns="http://www.w3.org/2000/svg">
<circle cx="24" cy="24" r="23.5871" stroke="#D7D7D7" stroke-width="0.825843"/>
<path d="M23.7912 11.3892C30.5915 11.3892 36.1917 16.9894 36.1917 23.7897C36.1917 30.64 30.5915 36.1903 23.7912 36.1903C16.9409 36.1903 11.3906 30.64 11.3906 23.7897C11.3906 16.9894 16.9409 11.3892 23.7912 11.3892ZM28.7914 29.64C29.1914 29.64 29.5414 29.34 29.5414 28.8899C29.5414 28.4399 29.3914 28.2399 29.0914 28.0399C25.4912 25.9398 21.3411 25.8398 17.2409 26.7398C16.8409 26.8398 16.5409 27.0899 16.5409 27.5899C16.5409 27.9899 16.8409 28.3899 17.3409 28.3899C17.4909 28.3899 17.7409 28.2899 17.9409 28.2399C21.5411 27.5399 25.1412 27.5899 28.2914 29.49C28.4414 29.59 28.5914 29.64 28.7914 29.64ZM30.1414 26.3898C30.6915 26.3898 31.0915 25.9398 31.1415 25.3898C31.1415 24.9898 30.9415 24.6398 30.5415 24.4397C28.0914 22.9397 24.9412 22.1396 21.6911 22.1396C19.641 22.1396 18.1909 22.4397 16.7909 22.8397C16.2908 22.9897 16.0408 23.3397 16.0408 23.8397C16.0408 24.3897 16.4908 24.8398 16.9909 24.8398C17.2409 24.8398 17.3409 24.7398 17.5909 24.6898C21.7411 23.5897 26.3913 24.3397 29.5414 26.1898C29.6914 26.2398 29.8914 26.3898 30.1414 26.3898ZM31.6915 22.5897C32.2915 22.5897 32.8416 22.0896 32.8416 21.3896C32.8416 20.7896 32.5916 20.4896 32.1915 20.2896C29.4414 18.6395 25.5912 17.8895 21.9411 17.8895C19.791 17.8895 17.8409 18.1395 16.0908 18.6395C15.6408 18.7895 15.1908 19.1395 15.1908 19.8395C15.1908 20.4896 15.6908 21.0396 16.3408 21.0396C16.5909 21.0396 16.8409 20.9396 16.9909 20.8896C21.1411 19.7395 27.4913 20.2396 31.0415 22.3897C31.2915 22.4897 31.4415 22.5897 31.6915 22.5897Z" fill="white"/>
</svg>
