<svg width="48" height="48" viewBox="0 0 48 48" fill="none" xmlns="http://www.w3.org/2000/svg">
<circle cx="24" cy="24" r="23.5871" stroke="#D7D7D7" stroke-width="0.825843"/>
<path d="M24.2168 18.0395C27.367 18.0395 29.9671 20.6396 29.9671 23.7897C29.9671 26.9899 27.367 29.54 24.2168 29.54C21.0167 29.54 18.4666 26.9899 18.4666 23.7897C18.4666 20.6396 21.0167 18.0395 24.2168 18.0395ZM24.2168 27.5399C26.2669 27.5399 27.917 25.8898 27.917 23.7897C27.917 21.7396 26.2669 20.0896 24.2168 20.0896C22.1168 20.0896 20.4667 21.7396 20.4667 23.7897C20.4667 25.8898 22.1668 27.5399 24.2168 27.5399ZM31.5172 17.8395C31.5172 18.5895 30.9171 19.1895 30.1671 19.1895C29.4171 19.1895 28.8171 18.5895 28.8171 17.8395C28.8171 17.0894 29.4171 16.4894 30.1671 16.4894C30.9171 16.4894 31.5172 17.0894 31.5172 17.8395ZM35.3173 19.1895C35.4173 21.0396 35.4173 26.5898 35.3173 28.4399C35.2173 30.24 34.8173 31.7901 33.5173 33.1401C32.2172 34.4402 30.6171 34.8402 28.8171 34.9402C26.967 35.0402 21.4167 35.0402 19.5666 34.9402C17.7666 34.8402 16.2165 34.4402 14.8664 33.1401C13.5664 31.7901 13.1664 30.24 13.0664 28.4399C12.9664 26.5898 12.9664 21.0396 13.0664 19.1895C13.1664 17.3894 13.5664 15.7894 14.8664 14.4893C16.2165 13.1892 17.7666 12.7892 19.5666 12.6892C21.4167 12.5892 26.967 12.5892 28.8171 12.6892C30.6171 12.7892 32.2172 13.1892 33.5173 14.4893C34.8173 15.7894 35.2173 17.3894 35.3173 19.1895ZM32.9172 30.39C33.5173 28.9399 33.3673 25.4398 33.3673 23.7897C33.3673 22.1896 33.5173 18.6895 32.9172 17.1894C32.5172 16.2394 31.7672 15.4393 30.8171 15.0893C29.3171 14.4893 25.8169 14.6393 24.2168 14.6393C22.5668 14.6393 19.0666 14.4893 17.6166 15.0893C16.6165 15.4894 15.8665 16.2394 15.4665 17.1894C14.8664 18.6895 15.0164 22.1896 15.0164 23.7897C15.0164 25.4398 14.8664 28.9399 15.4665 30.39C15.8665 31.39 16.6165 32.1401 17.6166 32.5401C19.0666 33.1401 22.5668 32.9901 24.2168 32.9901C25.8169 32.9901 29.3171 33.1401 30.8171 32.5401C31.7672 32.1401 32.5672 31.39 32.9172 30.39Z" fill="white"/>
</svg>
