<svg width="48" height="48" viewBox="0 0 48 48" fill="none" xmlns="http://www.w3.org/2000/svg">
<circle cx="24" cy="24" r="23.5871" stroke="#D7D7D7" stroke-width="0.825843"/>
<path d="M35.3673 18.6895C35.2673 20.8896 33.7673 23.8397 30.8171 27.6399C27.767 31.5901 25.2169 33.5901 23.0668 33.5901C21.7667 33.5901 20.6667 32.3901 19.7667 29.99C18.0166 23.4897 17.2665 19.7395 15.8165 19.7395C15.6165 19.7395 15.0664 20.0896 14.0664 20.7896L13.0164 19.4395C15.5665 17.1394 18.0166 14.6393 19.5666 14.4893C21.3167 14.3393 22.4168 15.5394 22.8168 18.0895C24.2168 27.1399 24.8669 28.5399 27.467 24.3897C28.417 22.9397 28.9171 21.7896 29.0171 21.0396C29.2171 18.7395 27.217 18.8895 25.8169 19.4895C26.917 15.8894 29.0171 14.1393 32.1172 14.2393C34.4173 14.2893 35.5173 15.7894 35.3673 18.6895Z" fill="white"/>
</svg>
